{
  "asset": { "version": "2.0" },
  "scene": 0,
  "scenes": [{ "nodes": [0] }],
  "nodes": [{ "mesh": 0, "name": "TerzoPlaceholder" }],
  "meshes": [
    {
      "name": "TerzoBody",
      "primitives": [
        { "attributes": { "POSITION": 0, "NORMAL": 1 }, "indices": 2, "material": 0 }
      ]
    }
  ],
  "materials": [
    {
      "name": "TerzoMaterial",
      "pbrMetallicRoughness": { "baseColorFactor": [0.05, 0.05, 0.06, 1], "metallicFactor": 0.9, "roughnessFactor": 0.35 }
    }
  ],
  "buffers": [
    { "byteLength": 216, "uri": "data:application/octet-stream;base64," }
  ],
  "bufferViews": [
    { "buffer": 0, "byteOffset": 0, "byteLength": 72, "target": 34962 },
    { "buffer": 0, "byteOffset": 72, "byteLength": 72, "target": 34962 },
    { "buffer": 0, "byteOffset": 144, "byteLength": 72, "target": 34963 }
  ],
  "accessors": [
    { "bufferView": 0, "componentType": 5126, "count": 6, "type": "VEC3", "max": [1,1,1], "min": [-1,-1,-1] },
    { "bufferView": 1, "componentType": 5126, "count": 6, "type": "VEC3" },
    { "bufferView": 2, "componentType": 5123, "count": 6, "type": "SCALAR" }
  ]
}